<?xml version="1.0" encoding="utf-8"?>
<!-- Generator: Adobe Illustrator 22.1.0, SVG Export Plug-In . SVG Version: 6.00 Build 0)  -->
<svg version="1.1" id="Layer_1" xmlns="http://www.w3.org/2000/svg" xmlns:xlink="http://www.w3.org/1999/xlink" x="0px" y="0px"
	 viewBox="0 0 290 70" style="enable-background:new 0 0 290 70;" xml:space="preserve">
<style type="text/css">
	.st0{fill:#FAFAFB;}
	.st1{fill:#080049;}
	.st2{fill:#8C88A8;}
	.st3{fill:#0A004C;}
	.st4{fill:#0A004B;}
	.st5{fill:#0B024B;}
	.st6{fill-rule:evenodd;clip-rule:evenodd;fill:#0F034F;}
	.st7{fill:#080148;}
	.st8{fill:#030045;}
	.st9{fill:#8580A3;}
	.st10{fill:#0C004C;}
	.st11{fill:#10044F;}
	.st12{fill:#0F034F;}
	.st13{font-family:'Arial-Black';}
	.st14{font-size:27.4764px;}
	.st15{font-family:'ArialRoundedMTBold';}
	.st16{font-size:12px;}
</style>
<g>
	<g id="XMLID_1_">
		<path class="st0" d="M22.8,36.2c0.8,0,1.2,0.3,1.1,1.2c0,0.1,0,0.1,0,0.2c0.2,4,0.2,4-4.9,4c-1.3,0-2.5,0.1-3.8,0
			c-1.6-0.1-2.4-1.1-2.4-2.8c0-1.6,0.9-2.5,2.4-2.5C17.8,36.2,20.3,36.3,22.8,36.2z"/>
		<path class="st1" d="M12.5,38c0.2,0.5,0.3,1,0,1.5C12.2,39,12.1,38.5,12.5,38z"/>
		<path class="st2" d="M72.5,39c0,0,0-0.1,0-0.1c0-0.9-0.4-1.8,0.4-2.6c0,0.9,0,1.8,0,2.7L72.7,39L72.5,39z"/>
		<path class="st3" d="M18.4,28c-2.6,0-5.2,0.1-7.8,0.1c-0.4,0-0.9,0-0.8-0.6c2.9,0,5.8-0.1,8.7,0.1C19.5,27.6,18.6,27.9,18.4,28z"
			/>
		<path class="st4" d="M64,27.9c-1.5-0.5-3.1-0.9-4.6,0.2C61,28,62.5,28.4,64,27.9z"/>
		<path class="st5" d="M36.7,37.7c-0.7,0.5-0.5,1.3-0.5,2c0,9,0,18,0,27.1c0,0.6-0.2,1.3,0.3,1.9c0.1-0.4,0.1-0.9,0.1-1.3
			C36.7,57.5,36.7,47.6,36.7,37.7z"/>
		<path class="st6" d="M47.6,31.9c0.1,0,0.1,0.1,0.2,0.1c0,0,0.2,0,0.2-0.1c0.1-0.8,0.4-1.6-0.4-2.2c-0.7-0.9-1.5-1.5-2.7-1.4
			c-2.7,0-5.4,0.1-8.1,0.1c-0.8,1.8-0.8,3.5,0.1,5.3c2.5,0,5,0,7.5,0C45.8,33.7,46.9,33.2,47.6,31.9z M37.2,27.6c2.8,0,5.5,0,8.3,0
			c0,0.1,0,0.1,0,0.2c-2.8,0-5.5,0-8.3,0C37.2,27.7,37.2,27.7,37.2,27.6z M72.9,33.7c0,0.9,0,1.8,0,2.7c-0.8,0.8-0.3,1.7-0.4,2.6
			c0,0,0,0.1,0,0.1c-2.3,15.5-15.2,27.9-30.3,29.4c-0.1-0.1-0.1-0.3-0.1-0.4c-0.2-3.7-0.2-3.7,3.2-4.6c9.1-2.4,16.2-7.6,20.5-16.6
			c6-12.5,2.1-27.1-9.2-35.5C44.4,2.3,26.9,3,15.4,13C0,26.5,3.2,51.2,21.5,60.6c2.6,1.3,5.3,2.3,8.1,3c1.6,0.4,2.2,0.2,2.2-1.8
			c-0.1-11.7,0-23.4-0.1-35.2c0-1.8,0.4-2.4,2.2-2.4c4,0.1,8,0,12,0.1c5,0.1,7.7,4.4,6,9.3c-1.2,3.3-3.9,3.7-6.7,3.9
			c-2.8,0.1-5.6,0.1-8.4,0.1c-0.7,0.5-0.5,1.3-0.5,2c0,9,0,18,0,27.1c0,0.6-0.2,1.3,0.3,1.9c-2.4,0.7-4.8,0.1-7.1-0.4
			C15.8,65.2,5.6,57.5,1.7,42.7C-1.5,31,1.7,20.5,9.9,12c13.6-14,34.6-15.3,49.8-3.5c7.2,5.6,11.7,13,12.8,22.4c0,0,0,0.1,0,0.1
			C72.5,32,72.2,32.9,72.9,33.7z"/>
		<path class="st6" d="M28.7,43.9c0,1.3-0.4,1.6-1.6,1.6c-4.1-0.1-8.3,0-12.4,0c-5-0.1-7.5-3.7-6.2-8.7c0.7-2.5,2.2-4,5.1-4.2
			c3.4-0.2,6.9,0,10.3,0c0-2.6-1.4-3.5-3.2-4.1c-0.7-0.2-1.5-0.3-2.3-0.5c0.2-0.1,1.1-0.4,0.1-0.5c-2.9-0.1-5.8-0.1-8.7-0.1
			c-0.2-3.1-0.2-3.1,2.7-3.1c3.1,0.1,6.3-0.3,9.4,0.3c4.4,0.8,6.6,3.4,6.7,8.1C28.7,36.5,28.6,40.2,28.7,43.9z M23.9,37.4
			c0.1-0.9-0.2-1.2-1.1-1.2c-2.5,0-5,0-7.6,0c-1.5,0.1-2.3,0.9-2.4,2.5c-0.1,1.7,0.8,2.6,2.4,2.8c1.2,0.1,2.5,0,3.8,0
			c5.1,0,5.1,0,4.9-4C23.9,37.5,23.9,37.5,23.9,37.4z M23.5,35.8c0-0.1,0-0.1,0-0.2c-2.8,0-5.5,0-8.3,0c0,0.1,0,0.1,0,0.2
			C18,35.8,20.7,35.8,23.5,35.8z M12.4,39.5c0.3-0.5,0.3-1,0-1.5C12.1,38.5,12.2,39,12.4,39.5z"/>
		<path class="st7" d="M47.5,29.7c0,0.7,0.1,1.4,0.1,2.1c0.1,0,0.1,0.1,0.2,0.1c0,0,0.2,0,0.2-0.1C48,31.1,48.4,30.3,47.5,29.7z"/>
		<path class="st8" d="M36.7,28.4c-0.8,1.8-0.8,3.5,0.1,5.3C36.8,31.9,36.8,30.1,36.7,28.4z"/>
		<path class="st9" d="M72.5,31.1c0,0,0-0.1,0-0.1c0.1,0,0.2,0,0.4,0c0,0.9,0,1.8,0,2.7C72.2,32.9,72.5,32,72.5,31.1z"/>
		<path class="st3" d="M45.5,27.6c0,0.1,0,0.1,0,0.2c-2.8,0-5.5,0-8.3,0c0-0.1,0-0.1,0-0.2C40,27.6,42.7,27.6,45.5,27.6z"/>
		<path class="st0" d="M47.5,29.7c0,0.7,0.1,1.4,0.1,2.1c-0.7,1.4-1.8,1.9-3.3,1.8c-2.5-0.1-5,0-7.5,0c0-1.8,0-3.5-0.1-5.3
			c2.7,0,5.4,0,8.1-0.1C46,28.3,46.8,28.9,47.5,29.7z"/>
		<path class="st10" d="M23.5,35.6c0,0.1,0,0.1,0,0.2c-2.8,0-5.5,0-8.3,0c0-0.1,0-0.1,0-0.2C18,35.6,20.7,35.6,23.5,35.6z"/>
		<path class="st11" d="M64.4,44.1c0,1.8-1,1.4-2,1.4c-5.4,0-7.6-2.3-7.6-8c0-5.2,0.1-10.3-0.1-15.5c-0.1-2.2,1.2-1.7,2.3-1.7
			c1.1,0,2.6-0.4,2.2,1.7c-0.4,2.1,0.6,2.5,2.4,2.4c3-0.1,3.2,0.1,2.4,3.4c-1.5-0.5-3.1-0.9-4.6,0.2c-0.4,3.8-0.1,7.6-0.2,11.5
			c0,2.2,1.8,2.3,3.2,2.3C64.3,41.8,64.4,42.6,64.4,44.1z"/>
	</g>
</g>
<text transform="matrix(0.9773 0 0 1 82.001 37.5742)" class="st12 st13 st14">Apt Academy</text>
<text id="Education_is_the_important_thing" transform="matrix(1 0 0 1 82.3481 52.1641)" class="st12 st15 st16">Education is the way to success</text>
</svg>
